<svg xmlns="http://www.w3.org/2000/svg" viewBox="0 0 512 512" width="512" height="512">
  <defs>
    <!-- Orbit-trap palette: indigo -> magenta -> gold -> cyan -->
    <linearGradient id="trap" x1="0" y1="0" x2="1" y2="1">
      <stop offset="0" stop-color="#6d5dfc"/>
      <stop offset="0.35" stop-color="#e056c8"/>
      <stop offset="0.65" stop-color="#ffb347"/>
      <stop offset="1" stop-color="#39d9d2"/>
    </linearGradient>
    <radialGradient id="bg" cx="0.32" cy="0.28" r="0.95">
      <stop offset="0" stop-color="#1b1b2e"/>
      <stop offset="1" stop-color="#08080f"/>
    </radialGradient>
    <radialGradient id="gloss" cx="0.32" cy="0.24" r="0.5">
      <stop offset="0" stop-color="#ffffff" stop-opacity="0.16"/>
      <stop offset="1" stop-color="#ffffff" stop-opacity="0"/>
    </radialGradient>
    <radialGradient id="core" cx="0.5" cy="0.5" r="0.5">
      <stop offset="0" stop-color="#fff7e8"/>
      <stop offset="0.5" stop-color="#ffb347"/>
      <stop offset="1" stop-color="#e056c8" stop-opacity="0"/>
    </radialGradient>
  </defs>

  <rect x="16" y="16" width="480" height="480" rx="112" fill="url(#bg)"/>

  <g fill="none" stroke-linejoin="round">
    <polygon points="60,60 452,60 452,452 60,452" class="ring" stroke="url(#trap)" stroke-width="5.80" opacity="0.95"/>
    <polygon points="136.08,56.42 455.58,136.08 375.92,455.58 56.42,375.92" class="ring" stroke="url(#trap)" stroke-width="5.55" opacity="0.90"/>
    <polygon points="198.82,68.96 443.04,198.82 313.18,443.04 68.96,313.18" class="ring" stroke="url(#trap)" stroke-width="5.31" opacity="0.86"/>
    <polygon points="247.4,91.94 420.06,247.4 264.6,420.06 91.94,264.6" class="ring" stroke="url(#trap)" stroke-width="5.06" opacity="0.81"/>
    <polygon points="282.33,120.53 391.47,282.33 229.67,391.47 120.53,229.67" class="ring" stroke="url(#trap)" stroke-width="4.82" opacity="0.77"/>
    <polygon points="304.99,150.94 361.06,304.99 207.01,361.06 150.94,207.01" class="ring" stroke="url(#trap)" stroke-width="4.57" opacity="0.72"/>
    <polygon points="317.28,180.33 331.67,317.28 194.72,331.67 180.33,194.72" class="ring" stroke="url(#trap)" stroke-width="4.32" opacity="0.67"/>
    <polygon points="321.32,206.77 305.23,321.32 190.68,305.23 206.77,190.68" class="ring" stroke="url(#trap)" stroke-width="4.08" opacity="0.63"/>
    <polygon points="319.25,229.15 282.85,319.25 192.75,282.85 229.15,192.75" class="ring" stroke="url(#trap)" stroke-width="3.83" opacity="0.58"/>
    <polygon points="313,246.97 265.03,313 199,265.03 246.97,199" class="ring" stroke="url(#trap)" stroke-width="3.58" opacity="0.53"/>
    <polygon points="304.3,260.23 251.77,304.3 207.7,251.77 260.23,207.7" class="ring" stroke="url(#trap)" stroke-width="3.34" opacity="0.49"/>
    <polygon points="294.5,269.26 242.74,294.5 217.5,242.74 269.26,217.5" class="ring" stroke="url(#trap)" stroke-width="3.09" opacity="0.44"/>
    <polygon points="284.69,274.63 237.37,284.69 227.31,237.37 274.63,227.31" class="ring" stroke="url(#trap)" stroke-width="2.85" opacity="0.40"/>
    <polygon points="275.6,277.01 234.99,275.6 236.4,234.99 277.01,236.4" class="ring" stroke="url(#trap)" stroke-width="2.60" opacity="0.35"/>
  </g>

  <circle cx="256" cy="256" r="58" fill="url(#core)"/>
  <rect x="16" y="16" width="480" height="480" rx="112" fill="url(#gloss)"/>
</svg>
